# xmcd
#
# Track frame offsets: 
#        150
#        18000
#        36405
#        58147
#        78592
#        99430
#        115257
#        136630
#        158327
#        179722
#        198107
#        220302
#
# Disc length: 3226 seconds
#
# Revision: 0
# Processed by: cddbd v1.5.2PL0 Copyright (c) Steve Scherf et al.
# Submitted via: ExactAudioCopy v0.99pb5
#
DISCID=990c980c
DTITLE=Chris Rea - The Blue Cafe
DYEAR=1998
DGENRE=Blues
TTITLE0=Chris Rea -  Square Peg, Round Hole
TTITLE1=Chris Rea -  Miss Your Kiss
TTITLE2=Chris Rea -  Shadows Of The Big Man
TTITLE3=Chris Rea -  Where Do We Go From Here
TTITLE4=Chris Rea -  Since I Found You
TTITLE5=Chris Rea -  Thinking Of You
TTITLE6=Chris Rea -  As Long As I Have Your Love
TTITLE7=Chris Rea -  Anyone Quite Like You
TTITLE8=Chris Rea -  Sweet Summer Day
TTITLE9=Chris Rea -  Stick By You
TTITLE10=Chris Rea -  I'm Still Holding On
TTITLE11=Chris Rea -  The Blue Cafe
EXTD=
EXTT0=
EXTT1=
EXTT2=
EXTT3=
EXTT4=
EXTT5=
EXTT6=
EXTT7=
EXTT8=
EXTT9=
EXTT10=
EXTT11=
PLAYORDER=
